<mxfile host="app.diagrams.net" agent="Mozilla/5.0 (X11; Linux x86_64) AppleWebKit/537.36 (KHTML, like Gecko) Chrome/135.0.0.0 Safari/537.36" version="26.2.13">
  <diagram id="C5RBs43oDa-KdzZeNtuy" name="Page-1">
    <mxGraphModel dx="674" dy="851" grid="1" gridSize="10" guides="1" tooltips="1" connect="1" arrows="1" fold="1" page="1" pageScale="1" pageWidth="827" pageHeight="1169" math="0" shadow="0">
      <root>
        <mxCell id="WIyWlLk6GJQsqaUBKTNV-0" />
        <mxCell id="WIyWlLk6GJQsqaUBKTNV-1" parent="WIyWlLk6GJQsqaUBKTNV-0" />
        <mxCell id="q2izUTULkOMpMjE2kqjO-3" value="" style="edgeStyle=none;curved=1;rounded=0;orthogonalLoop=1;jettySize=auto;html=1;fontSize=12;startSize=8;endSize=8;" edge="1" parent="WIyWlLk6GJQsqaUBKTNV-1" source="WIyWlLk6GJQsqaUBKTNV-3" target="q2izUTULkOMpMjE2kqjO-0">
          <mxGeometry relative="1" as="geometry" />
        </mxCell>
        <mxCell id="WIyWlLk6GJQsqaUBKTNV-3" value="Inicio" style="rounded=1;whiteSpace=wrap;html=1;fontSize=12;glass=0;strokeWidth=1;shadow=0;" parent="WIyWlLk6GJQsqaUBKTNV-1" vertex="1">
          <mxGeometry x="160" y="80" width="120" height="40" as="geometry" />
        </mxCell>
        <mxCell id="q2izUTULkOMpMjE2kqjO-2" value="" style="edgeStyle=none;curved=1;rounded=0;orthogonalLoop=1;jettySize=auto;html=1;fontSize=12;startSize=8;endSize=8;" edge="1" parent="WIyWlLk6GJQsqaUBKTNV-1" source="q2izUTULkOMpMjE2kqjO-0" target="q2izUTULkOMpMjE2kqjO-1">
          <mxGeometry relative="1" as="geometry" />
        </mxCell>
        <mxCell id="q2izUTULkOMpMjE2kqjO-0" value="Determinar contraseña &quot;python123&quot;" style="rounded=1;whiteSpace=wrap;html=1;" vertex="1" parent="WIyWlLk6GJQsqaUBKTNV-1">
          <mxGeometry x="160" y="160" width="120" height="60" as="geometry" />
        </mxCell>
        <mxCell id="q2izUTULkOMpMjE2kqjO-13" value="" style="edgeStyle=none;curved=1;rounded=0;orthogonalLoop=1;jettySize=auto;html=1;fontSize=12;startSize=8;endSize=8;" edge="1" parent="WIyWlLk6GJQsqaUBKTNV-1" source="q2izUTULkOMpMjE2kqjO-1" target="q2izUTULkOMpMjE2kqjO-5">
          <mxGeometry relative="1" as="geometry" />
        </mxCell>
        <mxCell id="q2izUTULkOMpMjE2kqjO-1" value="Ingresar contraseña" style="rounded=1;whiteSpace=wrap;html=1;" vertex="1" parent="WIyWlLk6GJQsqaUBKTNV-1">
          <mxGeometry x="160" y="280" width="120" height="60" as="geometry" />
        </mxCell>
        <mxCell id="q2izUTULkOMpMjE2kqjO-7" value="" style="edgeStyle=none;curved=1;rounded=0;orthogonalLoop=1;jettySize=auto;html=1;fontSize=12;startSize=8;endSize=8;" edge="1" parent="WIyWlLk6GJQsqaUBKTNV-1" source="q2izUTULkOMpMjE2kqjO-5" target="q2izUTULkOMpMjE2kqjO-6">
          <mxGeometry relative="1" as="geometry" />
        </mxCell>
        <mxCell id="q2izUTULkOMpMjE2kqjO-9" value="" style="edgeStyle=none;curved=1;rounded=0;orthogonalLoop=1;jettySize=auto;html=1;fontSize=12;startSize=8;endSize=8;" edge="1" parent="WIyWlLk6GJQsqaUBKTNV-1" source="q2izUTULkOMpMjE2kqjO-5" target="q2izUTULkOMpMjE2kqjO-8">
          <mxGeometry relative="1" as="geometry" />
        </mxCell>
        <mxCell id="q2izUTULkOMpMjE2kqjO-5" value="Contraseña es correcta" style="rhombus;whiteSpace=wrap;html=1;" vertex="1" parent="WIyWlLk6GJQsqaUBKTNV-1">
          <mxGeometry x="150" y="390" width="140" height="120" as="geometry" />
        </mxCell>
        <mxCell id="q2izUTULkOMpMjE2kqjO-17" value="" style="edgeStyle=none;curved=1;rounded=0;orthogonalLoop=1;jettySize=auto;html=1;fontSize=12;startSize=8;endSize=8;" edge="1" parent="WIyWlLk6GJQsqaUBKTNV-1" source="q2izUTULkOMpMjE2kqjO-6" target="q2izUTULkOMpMjE2kqjO-14">
          <mxGeometry relative="1" as="geometry" />
        </mxCell>
        <mxCell id="q2izUTULkOMpMjE2kqjO-6" value="Imprimir &quot;Acceso concedido&quot;" style="rounded=1;whiteSpace=wrap;html=1;" vertex="1" parent="WIyWlLk6GJQsqaUBKTNV-1">
          <mxGeometry x="160" y="610" width="120" height="60" as="geometry" />
        </mxCell>
        <mxCell id="q2izUTULkOMpMjE2kqjO-8" value="Imprimir &quot;Contraseña incorrecta&quot;" style="rounded=1;whiteSpace=wrap;html=1;" vertex="1" parent="WIyWlLk6GJQsqaUBKTNV-1">
          <mxGeometry x="354" y="420" width="120" height="60" as="geometry" />
        </mxCell>
        <mxCell id="q2izUTULkOMpMjE2kqjO-10" value="No" style="text;html=1;align=center;verticalAlign=middle;resizable=0;points=[];autosize=1;strokeColor=none;fillColor=none;fontSize=16;" vertex="1" parent="WIyWlLk6GJQsqaUBKTNV-1">
          <mxGeometry x="290" y="410" width="40" height="30" as="geometry" />
        </mxCell>
        <mxCell id="q2izUTULkOMpMjE2kqjO-12" value="Yes" style="text;html=1;align=center;verticalAlign=middle;resizable=0;points=[];autosize=1;strokeColor=none;fillColor=none;fontSize=16;" vertex="1" parent="WIyWlLk6GJQsqaUBKTNV-1">
          <mxGeometry x="219" y="501" width="50" height="30" as="geometry" />
        </mxCell>
        <mxCell id="q2izUTULkOMpMjE2kqjO-16" value="" style="edgeStyle=none;curved=1;rounded=0;orthogonalLoop=1;jettySize=auto;html=1;fontSize=12;startSize=8;endSize=8;" edge="1" parent="WIyWlLk6GJQsqaUBKTNV-1" source="q2izUTULkOMpMjE2kqjO-14" target="q2izUTULkOMpMjE2kqjO-15">
          <mxGeometry relative="1" as="geometry" />
        </mxCell>
        <mxCell id="q2izUTULkOMpMjE2kqjO-14" value="Validación contraseña" style="shape=document;whiteSpace=wrap;html=1;boundedLbl=1;" vertex="1" parent="WIyWlLk6GJQsqaUBKTNV-1">
          <mxGeometry x="160" y="740" width="120" height="80" as="geometry" />
        </mxCell>
        <mxCell id="q2izUTULkOMpMjE2kqjO-15" value="Fin" style="rounded=1;whiteSpace=wrap;html=1;" vertex="1" parent="WIyWlLk6GJQsqaUBKTNV-1">
          <mxGeometry x="160" y="930" width="120" height="60" as="geometry" />
        </mxCell>
      </root>
    </mxGraphModel>
  </diagram>
</mxfile>
